<?xml version="1.0" standalone="no"?>
<!DOCTYPE svg PUBLIC "-//W3C//DTD SVG 20010904//EN"
 "http://www.w3.org/TR/2001/REC-SVG-20010904/DTD/svg10.dtd">
<svg version="1.0" xmlns="http://www.w3.org/2000/svg"
 width="681.000000pt" height="681.000000pt" viewBox="0 0 681.000000 681.000000"
 preserveAspectRatio="xMidYMid meet">
<metadata>
Created by potrace 1.14, written by Peter Selinger 2001-2017
</metadata>
<g transform="translate(0.000000,681.000000) scale(0.100000,-0.100000)"
fill="#000000" stroke="none">
<path d="M5675 5825 c-102 -77 -149 -126 -180 -190 -28 -57 -36 -99 -40 -228
-2 -51 -3 -99 -4 -109 -1 -11 -22 -23 -68 -38 -189 -61 -425 -176 -748 -365
-82 -49 -160 -93 -172 -99 -13 -6 -23 -14 -23 -18 0 -5 -6 -8 -12 -9 -7 0 -56
-27 -108 -60 -52 -33 -107 -65 -121 -71 l-27 -12 35 -63 c19 -35 33 -64 31
-64 -1 -1 -19 -3 -38 -4 -70 -5 -185 -28 -254 -51 -38 -13 -78 -24 -88 -24
-10 0 -72 36 -139 80 -66 44 -124 80 -130 80 -5 0 -9 3 -9 8 0 4 -8 12 -18 17
-71 38 -73 39 -90 27 -19 -13 -318 -162 -326 -162 -2 0 -33 -13 -68 -29 -35
-16 -149 -65 -254 -110 -495 -209 -778 -346 -769 -374 2 -7 6 -70 10 -142 6
-152 10 -187 31 -275 24 -99 26 -120 14 -120 -6 0 -27 -11 -48 -24 -43 -27
-463 -272 -507 -296 -16 -8 -73 -41 -125 -72 -104 -62 -510 -298 -1035 -603
-187 -108 -350 -203 -362 -211 l-22 -14 31 -53 c17 -28 40 -68 50 -87 11 -19
41 -71 67 -115 168 -283 231 -394 231 -404 0 -6 4 -11 9 -11 5 0 13 -10 17
-22 3 -12 11 -26 16 -32 5 -6 74 -123 154 -261 80 -137 146 -251 148 -252 5
-5 150 120 202 174 140 145 221 238 367 422 141 177 228 259 371 351 323 207
356 232 425 319 l34 43 56 -6 c31 -4 70 -9 86 -13 52 -11 72 -6 155 35 44 21
83 35 86 30 6 -9 50 -169 58 -210 21 -104 27 -138 32 -168 39 -258 61 -349
116 -483 54 -132 178 -372 201 -388 10 -7 202 -3 295 6 228 22 431 79 524 148
40 29 44 4 -52 347 -28 102 -60 217 -71 255 -10 39 -30 111 -44 160 -57 197
-65 173 95 268 74 43 153 89 175 101 22 12 58 33 80 47 22 13 53 31 69 39 28
15 28 15 22 82 -4 41 -17 90 -33 125 -49 105 -51 96 14 89 32 -3 68 -5 81 -5
12 -1 22 -7 22 -15 0 -16 71 -77 150 -128 64 -41 179 -108 186 -108 2 0 21
-10 42 -23 20 -13 62 -37 92 -54 30 -17 111 -64 180 -104 152 -91 218 -120
286 -126 119 -12 223 85 336 312 83 166 111 292 83 374 -28 82 -75 120 -270
218 -255 128 -356 218 -447 400 -50 101 -51 106 -33 119 10 8 22 14 27 14 4 0
46 18 93 39 47 22 87 39 88 38 1 -1 16 8 34 21 17 12 34 22 38 22 4 0 66 34
138 76 414 239 730 462 878 619 109 115 114 124 111 175 -5 63 37 173 80 211
48 42 137 87 283 144 151 59 186 77 238 117 119 94 121 238 5 460 -63 121
-109 168 -171 175 -48 6 -61 0 -229 -100 -88 -52 -186 -86 -238 -81 -85 8
-139 50 -290 224 -41 47 -79 86 -84 87 -6 2 -20 -4 -31 -12z"/>
</g>
</svg>
